HIERARCHY
ROOT Hips
{
 OFFSET 0.000000 0.000000 0.000000
 CHANNELS 6 Xposition Yposition Zposition Yrotation Xrotation Zrotation
 JOINT Chest
 {
  OFFSET 0.000000 9.588913 -0.003946
  CHANNELS 3 Yrotation Xrotation Zrotation
  JOINT Chest2
  {
   OFFSET 0.000000 9.541882 0.008053
   CHANNELS 3 Yrotation Xrotation Zrotation
   JOINT Chest3
   {
    OFFSET 0.000000 9.501360 0.000000
    CHANNELS 3 Yrotation Xrotation Zrotation
    JOINT Chest4
    {
     OFFSET 0.000000 9.491660 0.000000
     CHANNELS 3 Yrotation Xrotation Zrotation
     JOINT Neck
     {
      OFFSET 0.000000 14.331917 0.000000
      CHANNELS 3 Yrotation Xrotation Zrotation
      JOINT Head
      {
       OFFSET 0.000000 8.884799 0.017034
       CHANNELS 3 Yrotation Xrotation Zrotation
       End Site
       {
        OFFSET 0.000000 16.896195 0.008993
       }
      }
     }
     JOINT RightCollar
     {
      OFFSET -2.923010 9.499495 0.000000
      CHANNELS 3 Yrotation Xrotation Zrotation
      JOINT RightShoulder
      {
       OFFSET -13.795216 0.000000 0.000000
       CHANNELS 3 Yrotation Xrotation Zrotation
       JOINT RightElbow
       {
        OFFSET -30.272209 0.000000 0.000000
        CHANNELS 3 Yrotation Xrotation Zrotation
        JOINT RightWrist
        {
         OFFSET -24.478199 0.000000 0.000000
         CHANNELS 3 Yrotation Xrotation Zrotation
         End Site
         {
          OFFSET -18.090752 0.000000 0.000000
         }
        }
       }
      }
     }
     JOINT LeftCollar
     {
      OFFSET 2.923010 9.499495 0.000000
      CHANNELS 3 Yrotation Xrotation Zrotation
      JOINT LeftShoulder
      {
       OFFSET 13.795216 0.000000 0.000000
       CHANNELS 3 Yrotation Xrotation Zrotation
       JOINT LeftElbow
       {
        OFFSET 30.272209 0.000000 0.000000
        CHANNELS 3 Yrotation Xrotation Zrotation
        JOINT LeftWrist
        {
         OFFSET 24.478199 0.000000 0.000000
         CHANNELS 3 Yrotation Xrotation Zrotation
         End Site
         {
          OFFSET 18.090752 0.000000 0.000000
         }
        }
       }
      }
     }
    }
   }
  }
 }
 JOINT RightHip
 {
  OFFSET -7.826875 0.019532 0.001973
  CHANNELS 3 Yrotation Xrotation Zrotation
  JOINT RightKnee
  {
   OFFSET 0.000000 -40.546152 -0.001885
   CHANNELS 3 Yrotation Xrotation Zrotation
   JOINT RightAnkle
   {
    OFFSET 0.000000 -39.417092 -0.003189
    CHANNELS 3 Yrotation Xrotation Zrotation
    JOINT RightToe
    {
     OFFSET 0.000000 -7.579396 17.243563
     CHANNELS 3 Yrotation Xrotation Zrotation
     End Site
     {
      OFFSET 0.000000 -1.500329 6.694466
     }
    }
   }
  }
 }
 JOINT LeftHip
 {
  OFFSET 7.826875 0.019532 0.001973
  CHANNELS 3 Yrotation Xrotation Zrotation
  JOINT LeftKnee
  {
   OFFSET 0.000000 -40.546152 -0.001885
   CHANNELS 3 Yrotation Xrotation Zrotation
   JOINT LeftAnkle
   {
    OFFSET 0.000000 -39.417092 -0.003189
    CHANNELS 3 Yrotation Xrotation Zrotation
    JOINT LeftToe
    {
     OFFSET 0.000000 -7.579396 17.243563
     CHANNELS 3 Yrotation Xrotation Zrotation
     End Site
     {
      OFFSET 0.000000 -1.500329 6.694466
     }
    }
   }
  }
 }
}
MOTION
Frames: 13
Frame Time: 0.008333
0.000000 87.345680 0.000000 0.000000 -5.767889 0.000000 0.000000 11.653876 0.000000 0.000000 -5.885988 0.000000 0.000000 -0.000000 0.000000 0.000000 -0.000000 0.000000 0.000000 12.528808 0.000000 0.000000 0.711711 0.000000 0.000000 -0.000000 0.000000 0.000000 -0.000000 0.000000 2.309063 -0.000000 0.000000 -2.309063 -0.000000 -0.000000 0.000000 -0.000000 0.000000 0.000000 0.000000 0.000000 -2.309063 0.000000 0.000000 2.309063 -0.000000 0.000000 0.000000 8.520374 0.000000 0.000000 1.905768 0.000000 -0.000000 -4.658254 0.000000 0.000000 -0.000000 0.000000 0.000000 8.520374 0.000000 0.000000 1.905768 0.000000 -0.000000 -4.658254 0.000000 0.000000 -0.000000 0.000000
19.032794 25.210033 6.977885 -51.629602 -41.557051 14.625110 22.275252 29.376774 15.049717 11.371420 17.787872 6.051401 14.701249 22.008096 8.241054 11.371420 17.787872 6.051401 6.911644 7.004678 -16.901172 13.263710 -17.780314 -22.982574 16.912677 -3.670453 -28.980125 31.882533 -59.485964 35.305565 95.083854 8.307245 -1.143502 7.718871 -4.465810 -6.923429 4.573466 2.357821 -6.430594 32.331160 -49.544708 -101.563672 -123.899848 -28.499406 -11.493281 -21.391439 22.288961 30.521998 -6.927009 -33.077542 45.796804 -152.877452 19.712567 175.663233 -30.378726 -52.567231 32.426343 -0.731391 -10.648267 3.342343 12.276761 -54.837133 69.013611 178.924790 14.451760 -160.126982 -28.448004 -38.286436 -4.525075 -0.928832 -0.252042 -0.428763
19.030581 25.212742 6.981410 -51.626800 -41.555748 14.635636 22.270693 29.381420 15.039886 11.367304 17.787425 6.045451 14.695732 22.007830 8.233310 11.367304 17.787425 6.045451 6.976039 6.947186 -16.886731 13.349668 -17.844422 -22.995824 16.921387 -3.655080 -29.000444 31.876627 -59.451275 35.293051 95.122115 8.296761 -1.202919 7.710930 -4.471760 -6.925070 4.581758 2.369936 -6.420411 32.136646 -49.566436 -101.502421 -123.911397 -28.480469 -11.462386 -21.409974 22.299552 30.571113 -6.921318 -33.058556 45.786699 -152.864931 19.707793 175.661909 -30.388301 -52.571324 32.437406 -0.735142 -10.659048 3.341782 12.289093 -54.822000 69.009150 178.926923 14.462144 -160.126086 -28.459344 -38.281336 -4.534125 -0.916161 -0.258431 -0.416720
19.027725 25.215923 6.985684 -51.622550 -41.556908 14.643745 22.267401 29.386619 15.031400 11.363040 17.786793 6.039327 14.690011 22.007343 8.225330 11.363040 17.786793 6.039327 7.038999 6.892363 -16.870460 13.432861 -17.905670 -23.005573 16.930053 -3.636829 -29.015378 31.877083 -59.436247 35.289270 95.146722 8.287358 -1.250065 7.714687 -4.476805 -6.937088 4.584926 2.379148 -6.418215 31.914066 -49.596659 -101.408023 -123.937346 -28.459942 -11.414438 -21.392401 22.306266 30.618128 -6.911046 -33.035274 45.778504 -152.851369 19.702895 175.661761 -30.400098 -52.574327 32.453450 -0.738158 -10.672568 3.342467 12.294952 -54.803887 69.013303 178.931919 14.473330 -160.120708 -28.481155 -38.274359 -4.533781 -0.905956 -0.261790 -0.407799
19.025107 25.218914 6.990398 -51.614744 -41.556262 14.648764 22.260962 29.389614 15.019906 11.358412 17.785573 6.032397 14.683765 22.006157 8.216284 11.358412 17.785574 6.032397 7.103239 6.840046 -16.850483 13.516127 -17.964206 -23.010178 16.944864 -3.613592 -29.020983 31.878683 -59.435849 35.295841 95.165760 8.277017 -1.282318 7.729542 -4.484634 -6.961280 4.584592 2.385451 -6.423888 31.685930 -49.628207 -101.297993 -123.974949 -28.435715 -11.352634 -21.349514 22.307699 30.657168 -6.897583 -33.014945 45.771121 -152.838350 19.697188 175.662919 -30.415574 -52.575694 32.476338 -0.741246 -10.687749 3.343405 12.297824 -54.789464 69.020338 178.937898 14.481663 -160.114939 -28.506855 -38.266573 -4.519019 -0.903368 -0.261891 -0.405548
19.023070 25.221470 6.995363 -51.603556 -41.553259 14.650548 22.251742 29.389816 15.006233 11.353364 17.784312 6.025082 14.676967 22.004941 8.206728 11.353364 17.784312 6.025082 7.168566 6.791278 -16.827327 13.599253 -18.018755 -23.010122 16.966973 -3.585871 -29.021073 31.883817 -59.442136 35.304698 95.180630 8.263373 -1.308271 7.755193 -4.503399 -7.000872 4.581237 2.388889 -6.436315 31.475790 -49.653304 -101.193488 -124.023122 -28.406838 -11.282625 -21.296192 22.306348 30.682006 -6.884538 -32.998861 45.765906 -152.827277 19.691039 175.664563 -30.434592 -52.574486 32.501811 -0.744612 -10.703705 3.345536 12.302732 -54.780251 69.025621 178.944951 14.485713 -160.111733 -28.522635 -38.260961 -4.502078 -0.903908 -0.260944 -0.404912
19.021369 25.223595 7.000282 -51.594022 -41.549040 14.650009 22.243628 29.388573 14.996200 11.348085 17.783153 6.017742 14.669881 22.003859 8.197134 11.348085 17.783153 6.017742 7.233499 6.747672 -16.803297 13.680931 -18.067307 -23.007828 16.992400 -3.552636 -29.021703 31.897764 -59.454241 35.309605 95.185463 8.249989 -1.333227 7.793635 -4.532643 -7.054972 4.571632 2.391302 -6.456357 31.300836 -49.667559 -101.110704 -124.079830 -28.374122 -11.211447 -21.247125 22.305929 30.686492 -6.872663 -32.984812 45.765485 -152.816525 19.686326 175.664489 -30.445647 -52.574166 32.514499 -0.743936 -10.719083 3.352848 12.310181 -54.775376 69.031606 178.952444 14.487779 -160.111086 -28.521612 -38.257121 -4.499023 -0.899182 -0.262617 -0.399795
19.020357 25.225173 7.005026 -51.588562 -41.542633 14.649923 22.237290 29.386378 14.989488 11.342675 17.782032 6.010153 14.662618 22.002835 8.187223 11.342674 17.782032 6.010153 7.296945 6.709109 -16.780010 13.760333 -18.109935 -23.005196 17.017233 -3.517309 -29.025785 31.923342 -59.470921 35.310071 95.179167 8.239623 -1.359851 7.841737 -4.565184 -7.119028 4.555880 2.394005 -6.482982 31.178040 -49.670024 -101.067159 -124.135843 -28.340233 -11.149407 -21.212098 22.311607 30.668426 -6.861090 -32.972545 45.769887 -152.801718 19.683646 175.664437 -30.452173 -52.573631 32.519256 -0.740574 -10.731630 3.365550 12.321028 -54.775318 69.038434 178.958241 14.489854 -160.112245 -28.514673 -38.252539 -4.501342 -0.892022 -0.265984 -0.393578
19.020510 25.226014 7.009443 -51.583573 -41.532949 14.649744 22.231130 29.382646 14.982533 11.337155 17.781194 6.001973 14.655199 22.002186 8.176571 11.337155 17.781194 6.001973 7.358358 6.673146 -16.757688 13.837160 -18.149556 -23.002765 17.040007 -3.487189 -29.032763 31.963556 -59.486122 35.308219 95.163401 8.236202 -1.392233 7.898908 -4.595941 -7.191245 4.540092 2.394750 -6.508481 31.111267 -49.658300 -101.073195 -124.182488 -28.302813 -11.103069 -21.201428 22.317975 30.632677 -6.851122 -32.963085 45.780668 -152.782076 19.681627 175.667860 -30.472941 -52.565808 32.538293 -0.740241 -10.740707 3.379107 12.336372 -54.779972 69.042042 178.960864 14.490760 -160.114616 -28.512720 -38.249945 -4.494793 -0.888861 -0.267941 -0.390795
19.021802 25.226238 7.013499 -51.575861 -41.521749 14.647983 22.224775 29.379097 14.974797 11.331452 17.780812 5.993658 14.647560 22.002114 8.165764 11.331452 17.780812 5.993658 7.416180 6.637112 -16.737577 13.910209 -18.189347 -23.002200 17.061190 -3.464758 -29.043288 32.017804 -59.495414 35.308448 95.138682 8.246844 -1.433357 7.965396 -4.623374 -7.270586 4.529606 2.392723 -6.525599 31.081988 -49.634349 -101.118894 -124.221206 -28.255963 -11.064210 -21.215445 22.317728 30.589700 -6.843066 -32.956230 45.796092 -152.764086 19.679031 175.673251 -30.511629 -52.550425 32.572019 -0.742052 -10.748173 3.392616 12.354497 -54.786414 69.039762 178.961362 14.490487 -160.117389 -28.516621 -38.250885 -4.481921 -0.887295 -0.269085 -0.389425
19.023955 25.225908 7.016986 -51.565242 -41.509931 14.643359 22.219240 29.376222 14.968544 11.325553 17.780825 5.986102 14.639728 22.002514 8.155925 11.325553 17.780825 5.986102 7.466989 6.599330 -16.722154 13.976170 -18.231345 -23.006036 17.082403 -3.443945 -29.061633 32.074926 -59.504433 35.315462 95.106153 8.269919 -1.480386 8.040929 -4.646598 -7.357904 4.524090 2.390970 -6.535166 31.067787 -49.606718 -101.182070 -124.256464 -28.200830 -11.023066 -21.244800 22.316425 30.548465 -6.837169 -32.951816 45.813929 -152.753213 19.676434 175.675233 -30.556180 -52.533789 32.605234 -0.744445 -10.754907 3.407279 12.370905 -54.793635 69.034798 178.961827 14.490198 -160.119934 -28.525494 -38.253877 -4.466722 -0.885279 -0.269470 -0.387748
19.026865 25.224790 7.019492 -51.551343 -41.495592 14.634150 22.214294 29.372370 14.965703 11.319825 17.780813 5.979576 14.632161 22.002843 8.147394 11.319824 17.780813 5.979576 7.508381 6.559770 -16.712761 14.032396 -18.275667 -23.015287 17.100750 -3.420310 -29.087331 32.132658 -59.521500 35.323964 95.066948 8.297044 -1.527360 8.125966 -4.668569 -7.451142 4.518708 2.393594 -6.541912 31.058611 -49.586887 -101.248850 -124.285397 -28.146269 -10.983855 -21.281136 22.321296 30.515446 -6.835386 -32.952723 45.833663 -152.745592 19.673745 175.671630 -30.586732 -52.521517 32.622838 -0.744113 -10.762446 3.424019 12.382949 -54.804843 69.030192 178.960894 14.488922 -160.122940 -28.539668 -38.259375 -4.445930 -0.886408 -0.267460 -0.387894
19.030365 25.223243 7.021329 -51.536400 -41.480713 14.623582 22.211259 29.368872 14.966348 11.314742 17.780861 5.974358 14.625478 22.003189 8.140551 11.314742 17.780861 5.974358 7.540165 6.519540 -16.709168 14.078383 -18.321041 -23.029350 17.110812 -3.398752 -29.114644 32.197246 -59.546973 35.328141 95.023530 8.321959 -1.570014 8.216237 -4.691009 -7.543331 4.509707 2.400287 -6.547489 31.043005 -49.583084 -101.306984 -124.307463 -28.097909 -10.949485 -21.315014 22.332647 30.497863 -6.835056 -32.957166 45.851309 -152.734427 19.670420 175.665989 -30.596193 -52.514416 32.624825 -0.740585 -10.771786 3.442389 12.392920 -54.817930 69.025783 178.958427 14.486988 -160.125739 -28.557107 -38.266154 -4.424586 -0.886881 -0.264872 -0.387541
